<?xml version="1.0" encoding="UTF-8"?>
<svg id="Camada_2" xmlns="http://www.w3.org/2000/svg" viewBox="0 0 297.63 416.68">
  <defs>
    <style>
      .cls-1 {
        fill-rule: evenodd;
      }

      .cls-1, .cls-2 {
        fill: #ccc;
      }
    </style>
  </defs>
  <g id="Camada_1-2" data-name="Camada_1">
    <g>
      <path class="cls-1" d="M.19,311.7v104.86l224.12-140.05c1.91-1.14,3.8-2.33,5.66-3.53,40.5-26.55,67.23-72.34,67.23-124.38C297.21,66.6,230.79.1,148.81,0h-.2c-39.13,0-74.72,15.12-101.26,39.83-.79.74-1.57,1.48-2.34,2.24C17.24,69.07,0,106.82,0,148.6v1.32c.04,4.48.28,8.9.7,13.27h88.16v-13.27c0-.43,0-.88,0-1.32,0-33,26.74-59.74,59.74-59.74s59.73,26.74,59.73,59.74c0,20.05-9.88,37.8-25.03,48.62l-6.26,3.92-112.27,70.18L.19,311.7Z"/>
      <rect class="cls-2" x="183.24" y="302.29" width="114.39" height="114.39"/>
    </g>
  </g>
</svg>